<mxfile host="app.diagrams.net" agent="Mozilla/5.0 (Windows NT 10.0; Win64; x64) AppleWebKit/537.36 (KHTML, like Gecko) Chrome/131.0.0.0 Safari/537.36 Edg/131.0.0.0" version="25.0.1">
  <diagram name="Page-1" id="hRNvXNKJbcUJAac3ZFcf">
    <mxGraphModel dx="983" dy="540" grid="1" gridSize="10" guides="1" tooltips="1" connect="1" arrows="1" fold="1" page="1" pageScale="1" pageWidth="827" pageHeight="1169" math="0" shadow="0">
      <root>
        <object label="" id="0">
          <mxCell />
        </object>
        <mxCell id="1" parent="0" />
        <mxCell id="J8glJ3NXqa6-_-m2RX2K-2" value="" style="rounded=1;whiteSpace=wrap;html=1;arcSize=6;" parent="1" vertex="1">
          <mxGeometry x="40" y="40" width="760" height="720" as="geometry" />
        </mxCell>
        <mxCell id="J8glJ3NXqa6-_-m2RX2K-3" value="" style="endArrow=none;html=1;rounded=0;exitX=0;exitY=0.056;exitDx=0;exitDy=0;exitPerimeter=0;entryX=1;entryY=0.056;entryDx=0;entryDy=0;entryPerimeter=0;" parent="1" edge="1">
          <mxGeometry width="50" height="50" relative="1" as="geometry">
            <mxPoint x="40" y="80.00000000000006" as="sourcePoint" />
            <mxPoint x="800" y="80.00000000000006" as="targetPoint" />
          </mxGeometry>
        </mxCell>
        <mxCell id="J8glJ3NXqa6-_-m2RX2K-4" value="AideAuDiagnostic.cs" style="text;html=1;align=center;verticalAlign=middle;whiteSpace=wrap;rounded=0;fillColor=none;strokeColor=none;fontFamily=Helvetica;fontStyle=1;fontSize=20;" parent="1" vertex="1">
          <mxGeometry x="40" y="40" width="760" height="40" as="geometry" />
        </mxCell>
        <mxCell id="J8glJ3NXqa6-_-m2RX2K-23" value="" style="rounded=1;whiteSpace=wrap;html=1;arcSize=11;" parent="1" vertex="1">
          <mxGeometry x="110" y="900" width="200" height="210" as="geometry" />
        </mxCell>
        <mxCell id="J8glJ3NXqa6-_-m2RX2K-24" value="" style="endArrow=none;html=1;rounded=0;exitX=0.001;exitY=0.096;exitDx=0;exitDy=0;exitPerimeter=0;entryX=1.001;entryY=0.095;entryDx=0;entryDy=0;entryPerimeter=0;" parent="1" source="J8glJ3NXqa6-_-m2RX2K-23" target="J8glJ3NXqa6-_-m2RX2K-23" edge="1">
          <mxGeometry width="50" height="50" relative="1" as="geometry">
            <mxPoint x="170" y="1010" as="sourcePoint" />
            <mxPoint x="220" y="960" as="targetPoint" />
          </mxGeometry>
        </mxCell>
        <mxCell id="J8glJ3NXqa6-_-m2RX2K-26" value="&lt;b&gt;Nom de la méthode&lt;/b&gt;" style="text;html=1;align=center;verticalAlign=middle;whiteSpace=wrap;rounded=0;" parent="1" vertex="1">
          <mxGeometry x="110" y="900" width="200" height="20" as="geometry" />
        </mxCell>
        <mxCell id="J8glJ3NXqa6-_-m2RX2K-30" value="AideAuDiagnostic_Load" style="swimlane;fontStyle=1;align=center;verticalAlign=top;childLayout=stackLayout;horizontal=1;startSize=26;horizontalStack=0;resizeParent=1;resizeParentMax=0;resizeLast=0;collapsible=1;marginBottom=0;whiteSpace=wrap;html=1;" parent="1" vertex="1">
          <mxGeometry x="334" y="100" width="160" height="80" as="geometry" />
        </mxCell>
        <mxCell id="J8glJ3NXqa6-_-m2RX2K-32" value="" style="line;strokeWidth=1;fillColor=none;align=left;verticalAlign=middle;spacingTop=-1;spacingLeft=3;spacingRight=3;rotatable=0;labelPosition=right;points=[];portConstraint=eastwest;strokeColor=inherit;" parent="J8glJ3NXqa6-_-m2RX2K-30" vertex="1">
          <mxGeometry y="26" width="160" height="8" as="geometry" />
        </mxCell>
        <mxCell id="J8glJ3NXqa6-_-m2RX2K-33" value="&lt;div style=&quot;&quot;&gt;&lt;span style=&quot;background-color: initial;&quot;&gt;Cette méthode s&#39;exécute au chargement de la Forms&lt;/span&gt;&lt;/div&gt;" style="text;strokeColor=none;fillColor=none;align=center;verticalAlign=top;spacingLeft=4;spacingRight=4;overflow=hidden;rotatable=0;points=[[0,0.5],[1,0.5]];portConstraint=eastwest;whiteSpace=wrap;html=1;" parent="J8glJ3NXqa6-_-m2RX2K-30" vertex="1">
          <mxGeometry y="34" width="160" height="46" as="geometry" />
        </mxCell>
        <mxCell id="J8glJ3NXqa6-_-m2RX2K-34" value="Appel" style="endArrow=block;endSize=16;endFill=0;html=1;rounded=0;exitX=0.503;exitY=0.992;exitDx=0;exitDy=0;exitPerimeter=0;entryX=0.5;entryY=0;entryDx=0;entryDy=0;" parent="1" source="J8glJ3NXqa6-_-m2RX2K-33" target="J8glJ3NXqa6-_-m2RX2K-35" edge="1">
          <mxGeometry width="160" relative="1" as="geometry">
            <mxPoint x="220" y="290" as="sourcePoint" />
            <mxPoint x="380" y="290" as="targetPoint" />
          </mxGeometry>
        </mxCell>
        <mxCell id="J8glJ3NXqa6-_-m2RX2K-35" value="StartApplication" style="swimlane;fontStyle=1;align=center;verticalAlign=top;childLayout=stackLayout;horizontal=1;startSize=26;horizontalStack=0;resizeParent=1;resizeParentMax=0;resizeLast=0;collapsible=1;marginBottom=0;whiteSpace=wrap;html=1;" parent="1" vertex="1">
          <mxGeometry x="334" y="250" width="160" height="110" as="geometry" />
        </mxCell>
        <mxCell id="J8glJ3NXqa6-_-m2RX2K-37" value="" style="line;strokeWidth=1;fillColor=none;align=left;verticalAlign=middle;spacingTop=-1;spacingLeft=3;spacingRight=3;rotatable=0;labelPosition=right;points=[];portConstraint=eastwest;strokeColor=inherit;" parent="J8glJ3NXqa6-_-m2RX2K-35" vertex="1">
          <mxGeometry y="26" width="160" height="8" as="geometry" />
        </mxCell>
        <mxCell id="J8glJ3NXqa6-_-m2RX2K-38" value="&lt;div style=&quot;&quot;&gt;&lt;span style=&quot;background-color: initial;&quot;&gt;Cette méthode exécute toutes les méthodes nécessaire au démarrage de la fonction&lt;/span&gt;&lt;/div&gt;" style="text;strokeColor=none;fillColor=none;align=center;verticalAlign=top;spacingLeft=4;spacingRight=4;overflow=hidden;rotatable=0;points=[[0,0.5],[1,0.5]];portConstraint=eastwest;whiteSpace=wrap;html=1;" parent="J8glJ3NXqa6-_-m2RX2K-35" vertex="1">
          <mxGeometry y="34" width="160" height="76" as="geometry" />
        </mxCell>
        <mxCell id="J8glJ3NXqa6-_-m2RX2K-39" value="ReadIniFile" style="swimlane;fontStyle=1;align=center;verticalAlign=top;childLayout=stackLayout;horizontal=1;startSize=26;horizontalStack=0;resizeParent=1;resizeParentMax=0;resizeLast=0;collapsible=1;marginBottom=0;whiteSpace=wrap;html=1;" parent="1" vertex="1">
          <mxGeometry x="80" y="250" width="160" height="100" as="geometry">
            <mxRectangle x="80" y="250" width="100" height="30" as="alternateBounds" />
          </mxGeometry>
        </mxCell>
        <mxCell id="J8glJ3NXqa6-_-m2RX2K-41" value="" style="line;strokeWidth=1;fillColor=none;align=left;verticalAlign=middle;spacingTop=-1;spacingLeft=3;spacingRight=3;rotatable=0;labelPosition=right;points=[];portConstraint=eastwest;strokeColor=inherit;" parent="J8glJ3NXqa6-_-m2RX2K-39" vertex="1">
          <mxGeometry y="26" width="160" height="8" as="geometry" />
        </mxCell>
        <mxCell id="J8glJ3NXqa6-_-m2RX2K-42" value="Cette méthode sert à lire et exécuter le fichier d&#39;initialisation de la fonction&amp;nbsp;" style="text;strokeColor=none;fillColor=none;align=center;verticalAlign=top;spacingLeft=4;spacingRight=4;overflow=hidden;rotatable=0;points=[[0,0.5],[1,0.5]];portConstraint=eastwest;whiteSpace=wrap;html=1;" parent="J8glJ3NXqa6-_-m2RX2K-39" vertex="1">
          <mxGeometry y="34" width="160" height="66" as="geometry" />
        </mxCell>
        <mxCell id="J8glJ3NXqa6-_-m2RX2K-43" value="ReadExcel" style="swimlane;fontStyle=1;align=center;verticalAlign=top;childLayout=stackLayout;horizontal=1;startSize=26;horizontalStack=0;resizeParent=1;resizeParentMax=0;resizeLast=0;collapsible=1;marginBottom=0;whiteSpace=wrap;html=1;" parent="1" vertex="1">
          <mxGeometry x="590" y="250" width="160" height="110" as="geometry" />
        </mxCell>
        <mxCell id="J8glJ3NXqa6-_-m2RX2K-45" value="" style="line;strokeWidth=1;fillColor=none;align=left;verticalAlign=middle;spacingTop=-1;spacingLeft=3;spacingRight=3;rotatable=0;labelPosition=right;points=[];portConstraint=eastwest;strokeColor=inherit;" parent="J8glJ3NXqa6-_-m2RX2K-43" vertex="1">
          <mxGeometry y="26" width="160" height="8" as="geometry" />
        </mxCell>
        <mxCell id="J8glJ3NXqa6-_-m2RX2K-46" value="Cette méthode sert à lire et stocker les information du fichier Excel contenant la bibliothèque standard LTU" style="text;strokeColor=none;fillColor=none;align=center;verticalAlign=top;spacingLeft=4;spacingRight=4;overflow=hidden;rotatable=0;points=[[0,0.5],[1,0.5]];portConstraint=eastwest;whiteSpace=wrap;html=1;" parent="J8glJ3NXqa6-_-m2RX2K-43" vertex="1">
          <mxGeometry y="34" width="160" height="76" as="geometry" />
        </mxCell>
        <mxCell id="J8glJ3NXqa6-_-m2RX2K-47" value="Appel" style="endArrow=block;endSize=16;endFill=0;html=1;rounded=0;exitX=0;exitY=0.5;exitDx=0;exitDy=0;" parent="1" source="J8glJ3NXqa6-_-m2RX2K-38" edge="1">
          <mxGeometry width="160" relative="1" as="geometry">
            <mxPoint x="280" y="310" as="sourcePoint" />
            <mxPoint x="240" y="323" as="targetPoint" />
          </mxGeometry>
        </mxCell>
        <mxCell id="J8glJ3NXqa6-_-m2RX2K-48" value="Appel" style="endArrow=block;endSize=16;endFill=0;html=1;rounded=0;exitX=1;exitY=0.5;exitDx=0;exitDy=0;" parent="1" source="J8glJ3NXqa6-_-m2RX2K-38" target="J8glJ3NXqa6-_-m2RX2K-46" edge="1">
          <mxGeometry width="160" relative="1" as="geometry">
            <mxPoint x="344" y="332" as="sourcePoint" />
            <mxPoint x="250" y="333" as="targetPoint" />
          </mxGeometry>
        </mxCell>
      </root>
    </mxGraphModel>
  </diagram>
</mxfile>
